<?xml version="1.0" encoding="UTF-8"?>
<svg id="Layer_2" data-name="Layer 2" xmlns="http://www.w3.org/2000/svg" viewBox="0 0 662.9 164.05">
  <defs>
    <style>
      .cls-1 {
        fill: #fff;
      }
    </style>
  </defs>
  <g id="Layer_1-2" data-name="Layer 1">
    <g>
      <polygon class="cls-1" points="398.52 109.72 339.96 72.23 374.28 32.99 300.6 0 300.6 102.67 263.91 105.93 252.77 159.8 307.03 142.77 315.2 109.53 320.23 25.62 342.96 43.43 323.09 77.38 356.37 111.03 326.18 164.05 398.52 109.72"/>
      <g>
        <path class="cls-1" d="M0,142.03l5.18-78,85.8-19.63-13.39,31.27-54.41,5.15v18.12l27.88-2.52v20.19l-27.88-.87v34.03l-23.18-7.75Z"/>
        <path class="cls-1" d="M149.8,104.11v11.76h-64.08v3.84c0,2.88.56,4.92,1.68,6.12,1.12,1.2,3,1.8,5.64,1.8h31.92c2.72,0,7.44-.63,7.44-3.51v-1.68h17.4v1.92c0,6.96-1.96,7.97-5.88,11.85-3.92,3.88-9.44,5.82-16.56,5.82h-36.6c-7.12,0-12.64-1.94-16.56-5.82-3.92-3.88-5.88-9.3-5.88-16.26v-15.84c0-6.96,1.96-12.38,5.88-16.26,3.92-3.88,9.44-5.82,16.56-5.82h58.9s.14,18.82.14,22.08ZM87.88,97.75c-1.12.88-1.76,2.4-1.92,4.56l-.12,1.56h46.08v-1.8c-.32-2.08-1.02-3.54-2.1-4.38-1.08-.84-2.7-1.26-4.86-1.26h-31.92c-2.32,0-4.04.44-5.16,1.32Z"/>
        <path class="cls-1" d="M242.78,104.11v11.76h-64.08v3.84c0,2.88.56,4.92,1.68,6.12,1.12,1.2,3,1.8,5.64,1.8h31.92c2.72,0,7.44-.63,7.44-3.51v-1.68h17.4v1.92c0,6.96-1.96,7.97-5.88,11.85-3.92,3.88-9.44,5.82-16.56,5.82h-36.6c-7.12,0-12.64-1.94-16.56-5.82-3.92-3.88-5.88-9.3-5.88-16.26v-15.84c0-6.96,1.96-12.38,5.88-16.26,3.92-3.88,9.44-5.82,16.56-5.82h58.9s.14,18.82.14,22.08ZM180.86,97.75c-1.12.88-1.76,2.4-1.92,4.56l-.12,1.56h46.08v-1.8c-.32-2.08-1.02-3.54-2.1-4.38-1.08-.84-2.7-1.26-4.86-1.26h-31.92c-2.32,0-4.04.44-5.16,1.32Z"/>
      </g>
      <g>
        <path class="cls-1" d="M479.24,86.77c3.4,3.16,5.1,7.9,5.1,14.22v24.36c0,.64.12,1.12.36,1.44.24.32.64.48,1.2.48h2.76l3.86,14.76h-19.58c-2,0-3.5-.46-4.5-1.38-1-.92-1.5-2.26-1.5-4.02v-1.32c-.72,2.24-2.04,3.9-3.96,4.98-1.92,1.08-4.36,1.62-7.32,1.62l-29.88.12c-6,0-10.38-1.46-13.14-4.38-2.76-2.92-4.14-7.46-4.14-13.62v-3.36c0-.95.15-17.87.15-17.87,0,0,16.52-.13,17.13-.13h29.88c2.96,0,5.4.54,7.32,1.62,1.92,1.08,3.24,2.74,3.96,4.98v-1.2c-.08-4.08-.96-11.46-2.64-13.14-1.68-1.68-4.6-2.52-8.76-2.52l-43.44,3.41v-23.36s63.74,11.15,67.14,14.31ZM428.54,117.55c-1.36,0-2.3.26-2.82.78-.52.52-.78,1.5-.78,2.94v2.16c0,1.36.26,2.32.78,2.88.52.56,1.46.84,2.82.84h35.04c1.12,0,1.96-.26,2.52-.78.56-.52.84-1.38.84-2.58v-3c0-1.12-.26-1.94-.78-2.46-.52-.52-1.38-.78-2.58-.78h-35.04Z"/>
        <path class="cls-1" d="M570.62,87.85c3.92,3.88,5.88,9.3,5.88,16.26v3.84h-17.4v-1.68c0-2.88-.58-4.92-1.74-6.12-1.16-1.2-3.06-1.8-5.7-1.8h-31.92c-2.64,0-4.52.6-5.64,1.8-1.12,1.2-1.68,3.24-1.68,6.12v11.52c0,2.88.56,4.92,1.68,6.12,1.12,1.2,3,1.8,5.64,1.8h31.92c2.72,0,4.64-.6,5.76-1.8,1.12-1.2,1.68-3.24,1.68-6.12v-1.68h17.4v3.84c0,6.96-1.96,12.38-5.88,16.26-3.92,3.88-9.44,5.82-16.56,5.82h-36.6c-7.12,0-12.64-1.94-16.56-5.82-3.92-3.88-5.88-9.3-5.88-16.26v-15.84c0-3.73.31-22.12.31-22.12,0,0,18.83.04,22.13.04h36.6c7.12,0,12.64,1.94,16.56,5.82Z"/>
        <path class="cls-1" d="M577.96,53.95l25.53,7.68v42.36h10.47l22.81-33.78,23.83,16.18-27.49,19.39,29.78,36.25h-28.51l-7.97-21.72h-22.92v21.72h-17.4l-8.13-88.08Z"/>
      </g>
    </g>
  </g>
</svg>